<svg id="Layer_1" data-name="Layer 1" xmlns="http://www.w3.org/2000/svg" viewBox="0 0 28.14 24.64"><defs><style>.cls-1,.cls-5{fill:none;stroke-linecap:round;stroke-linejoin:round;stroke-width:2px;}.cls-1{stroke:#000;}.cls-2{fill:#43434a;}.cls-3{fill:#ddbe87;}.cls-4{fill:#fff;}.cls-5{stroke:#b26747;}</style></defs><title>Icon</title><path class="cls-1" d="M-11.43,10.4" transform="translate(-2.01 -3.28)"/><path class="cls-2" d="M9.5,26.92c0-5,3.13-9,7-9s7,4,7,9Z" transform="translate(-2.01 -3.28)"/><path class="cls-3" d="M20.71,12.3q4.2,7.27,8.41,14.56l-.11.06H23.5c0-5-3.13-9-7-9s-7,4-7,9H3l7.85-13.61h0s2.33-1.73,3.53-1.08c.68.36,1.18,1,1.87,1.34a3,3,0,0,0,2.3.06,9.24,9.24,0,0,0,2-1.25Z" transform="translate(-2.01 -3.28)"/><path class="cls-4" d="M20.55,12.39a9.24,9.24,0,0,1-2,1.25,3,3,0,0,1-2.3-.06c-.69-.33-1.19-1-1.87-1.34-1.2-.65-3.53,1.08-3.53,1.08h0l1.14-2,4.08-7.07.07.12,4.56,7.9Z" transform="translate(-2.01 -3.28)"/><path class="cls-5" d="M29,26.92H3l7.85-13.61,1.14-2,4.08-7.07.07.12,4.56,7.9q4.2,7.27,8.41,14.56l0,.06" transform="translate(-2.01 -3.28)"/><path class="cls-5" d="M10.88,13.32s2.33-1.73,3.53-1.08c.68.36,1.18,1,1.87,1.34a3,3,0,0,0,2.3.06,9.24,9.24,0,0,0,2-1.25" transform="translate(-2.01 -3.28)"/><path class="cls-5" d="M9.5,26.92c0-5,3.13-9,7-9" transform="translate(-2.01 -3.28)"/><path class="cls-5" d="M23.5,26.92c0-5-3.13-9-7-9" transform="translate(-2.01 -3.28)"/></svg>